<svg width="128" height="128" version="1.1" viewBox="0 0 128 128" xmlns="http://www.w3.org/2000/svg">
 <style>
  /* Why not link the stylesheet? https://stackoverflow.com/a/12604286 */
  :root {
   --color-primary-500: hsl(215, 62.5%, 50%);
   --color-primary-700: hsl(215, 54.1%, 27.28%);
   --color-secondary-500: hsl(355, 62.5%, 50%);
   --color-secondary-700: hsl(355, 54.1%, 27.28%);
   --color-tertiary-500: hsl(75, 62.5%, 50%);
   --color-tertiary-700: hsl(75, 54.1%, 27.28%);
  }
 </style>
 <path d="m64 24-40 12.5 40 6.5 40-6.5z" style="fill: var(--color-primary-500); fill-opacity: .3;" />
 <path d="m64 0v24l40 12.5v-16.5z" style="fill: var(--color-primary-500);" />
 <path d="m64 0-40 20v16.5l40-12.5z" style="fill: var(--color-primary-700);" />
 <path d="m24 91.5 40 12.5 40-12.5-40-6.5z" style="fill: var(--color-secondary-500); fill-opacity: .3;" />
 <path d="m64 104v24l40-20v-16.5z" style="fill: var(--color-secondary-500);" />
 <path d="m24 91.5 40 12.5v24l-40-20z" style="fill: var(--color-secondary-700);" />
 <path d="m67.712 52.567-7.1272 22.953 39.631 8.3363 4.8789-15.713z" style="fill: var(--color-tertiary-500);" />
 <path d="m27.801 44.16 39.911 8.4063-7.1272 22.953-37.653-15.678z" style="fill: var(--color-tertiary-700);" />
</svg>
