<svg width="128" height="128" version="1.1" viewBox="0 0 128 128" xmlns="http://www.w3.org/2000/svg">
 <path d="m63.971 24-40.512 12.66 40.32 6.541 40.529-6.5957z" fill="#667d99" fill-opacity=".5"/>
 <path d="m63.971 0v24l40.338 12.605v-16.436z" fill="#2073df"/>
 <path d="m63.971 0-40.512 20.256v16.404l40.512-12.66z" fill="#104389"/>
 <path d="m23.96 91.497 40.01 12.503 40.644-12.701-39.94-6.4652z" fill="#8c9966" fill-opacity=".5"/>
 <path d="m63.97 104v24l40.644-20.322v-16.379z" fill="#b3df20"/>
 <path d="m23.96 91.497 40.01 12.503v24l-40.01-20.005z" fill="#6b8910"/>
 <path d="m67.712 52.567-7.1272 22.953 39.631 8.3363 4.8789-15.713z" fill="#df202d"/>
 <path d="m27.801 44.16 39.911 8.4063-7.1272 22.953-37.653-15.678z" fill="#89101a"/>
</svg>
